<svg viewBox="337.5 405 283.49999999999994 216.0000000000002" fill="rgb(50, 55, 119)" xmlns="http://www.w3.org/2000/svg" xmlns:xlink="http://www.w3.org/1999/xlink" overflow="visible" width="283.49999999999994px" height="216.0000000000002px"><g id="Master/Vero/Short Arrow"><path id="Vector" d="M608.967 578.728C605.137 516.21 539.467 420.952 536.675 416.855C535.311 414.886 533.57 413.204 531.554 411.907C529.538 410.61 527.285 409.721 524.924 409.293C522.563 408.865 520.142 408.906 517.797 409.413C515.452 409.919 513.23 410.882 511.258 412.246C509.285 413.608 507.6 415.344 506.3 417.356C504.999 419.368 504.108 421.616 503.679 423.971C503.25 426.326 503.291 428.743 503.799 431.083C504.307 433.422 505.272 435.639 506.639 437.606C520.262 457.25 551.247 507.212 565.367 548.89C544.639 530.767 522.363 514.488 498.79 500.241C470.229 482.654 439.938 468.033 408.39 456.608C394.212 451.519 379.565 447.013 364.832 443.206C360.136 442.006 355.155 442.714 350.981 445.175C346.808 447.635 343.784 451.648 342.573 456.331C341.369 461.017 342.079 465.987 344.545 470.151C347.011 474.315 351.033 477.333 355.727 478.541C369.364 482.056 382.914 486.227 396.024 490.937C425.249 501.524 453.308 515.075 479.761 531.376C498.277 542.591 515.951 555.137 532.642 568.913C493.689 571.976 444.404 574.542 426.412 574.542H426.177C421.338 574.546 416.697 576.464 413.273 579.875C409.848 583.287 407.919 587.914 407.907 592.742C407.903 597.578 409.824 602.218 413.247 605.641C416.67 609.065 421.315 610.992 426.162 611H426.353C440.969 611 480.315 609.133 514.196 606.815C586.049 601.915 594.308 598.196 598.283 596.402C601.648 594.882 604.471 592.378 606.379 589.222C608.287 586.066 609.189 582.407 608.967 578.728V578.728Z" fill="#4A3993"/></g></svg>