<svg viewBox="216 405 648 270.0000000000002" fill="rgb(50, 55, 119)" xmlns="http://www.w3.org/2000/svg" xmlns:xlink="http://www.w3.org/1999/xlink" overflow="visible" width="648px" height="270.0000000000002px"><g id="Master/Vero/Curvy Arrow"><path id="Vector" d="M857.519 415.528C855.888 413.669 853.893 412.165 851.658 411.11C849.422 410.054 846.993 409.469 844.522 409.391C832.579 409.015 726.813 406.243 689.484 423.34C685.133 425.336 681.754 428.978 680.089 433.465C678.423 437.952 678.609 442.916 680.603 447.267C681.59 449.422 682.992 451.362 684.728 452.975C686.465 454.589 688.503 455.844 690.725 456.67C692.947 457.496 695.31 457.877 697.679 457.789C700.047 457.702 702.376 457.149 704.531 456.162C723.752 447.354 781.732 444.841 824.145 445.116C824.059 446.141 823.973 447.209 823.872 448.278C822.262 449.021 820.768 449.994 819.438 451.166C763.869 500.003 707.275 528.334 646.406 537.807C592.657 546.125 542.75 539.136 494.503 532.363C394.398 518.327 299.824 505.057 220.327 645.098C217.982 649.256 217.381 654.173 218.653 658.773C219.925 663.374 222.967 667.283 227.114 669.646C229.827 671.185 232.892 671.996 236.01 672C239.204 672.002 242.34 671.157 245.101 669.552C247.861 667.946 250.146 665.636 251.722 662.859C282.828 608.073 316.995 577.229 359.235 565.778C398.139 555.251 440.478 561.186 489.491 568.059C537.969 574.846 592.917 582.5 651.923 573.431C711.131 564.262 766.382 539.381 819.958 497.606C818.615 517.389 817.69 536.825 817.994 549.417C818.111 554.124 820.062 558.599 823.432 561.887C826.801 565.176 831.322 567.017 836.031 567.02H836.492C841.279 566.899 845.821 564.882 849.122 561.414C852.423 557.945 854.212 553.308 854.096 548.522C853.287 516.306 861.822 430.112 861.909 429.231C862.158 426.768 861.896 424.28 861.14 421.922C860.385 419.565 859.153 417.388 857.519 415.528V415.528Z"/></g></svg>