<svg viewBox="162 405 756.0000000000001 270.0000000000002" fill="rgb(50, 55, 119)" xmlns="http://www.w3.org/2000/svg" xmlns:xlink="http://www.w3.org/1999/xlink" overflow="visible" ><g id="Master/Vero/Curve Arrow"><path id="Vector" d="M914.972 566.301C911.434 508.344 850.769 420.015 848.19 416.283C846.93 414.458 845.322 412.899 843.459 411.696C841.597 410.492 839.515 409.669 837.335 409.272C835.154 408.875 832.917 408.913 830.751 409.383C828.585 409.852 826.532 410.745 824.711 412.01C821.032 414.562 818.516 418.473 817.716 422.883C816.915 427.293 817.897 431.84 820.444 435.526C833.028 453.74 861.639 500.095 874.682 538.702C845.652 513.009 810.345 489.818 767.313 468.264C763.007 466.171 758.579 464.337 754.054 462.773C750.745 461.645 747.508 460.318 744.36 458.798C743.927 458.582 743.482 458.392 743.009 458.216C691.785 437.98 637.386 426.993 582.334 425.763C527.446 424.308 472.697 431.967 420.308 448.426C309.968 483.017 220.125 553.387 167.305 646.571C166.178 648.503 165.445 650.639 165.149 652.857C164.853 655.075 164.999 657.329 165.58 659.49C166.161 661.65 167.163 663.674 168.531 665.443C169.898 667.213 171.603 668.692 173.545 669.797C175.488 670.901 177.632 671.609 179.85 671.878C182.067 672.146 184.316 671.972 186.466 671.363C188.616 670.755 190.624 669.725 192.373 668.334C194.123 666.942 195.579 665.217 196.657 663.257C245.265 577.552 328.25 512.712 430.394 480.704C479.222 465.37 530.247 458.232 581.401 459.582C632.27 460.681 682.547 470.751 729.925 489.332C734.017 491.281 738.214 493.001 742.496 494.484C745.802 495.615 749.038 496.938 752.191 498.446C788.646 516.742 819.107 536.106 844.41 557.201C808.427 560.04 762.911 562.407 746.29 562.407H746.061C741.588 562.41 737.299 564.191 734.135 567.357C730.971 570.523 729.19 574.817 729.183 579.296C729.181 581.516 729.615 583.715 730.462 585.766C731.308 587.817 732.551 589.682 734.117 591.253C735.683 592.824 737.542 594.07 739.589 594.921C741.636 595.772 743.831 596.211 746.047 596.213H746.223C759.725 596.213 796.072 594.482 827.37 592.346C893.733 587.802 901.376 584.354 905.048 582.691C908.165 581.286 910.782 578.967 912.554 576.041C914.326 573.114 915.169 569.718 914.972 566.301V566.301Z" /></g></svg>