<svg viewBox="311.5999999999999 175.33928571428567 934.8 740.3214285714283" fill="none" xmlns="http://www.w3.org/2000/svg" xmlns:xlink="http://www.w3.org/1999/xlink" overflow="visible" width="934.8px" height="740.3214285714283px"><g id="Master/New Stickers/Desktop"><g id="Blush/New Stickers/Desktop"><path id="Base Copy" fill-rule="evenodd" clip-rule="evenodd" d="M1170 762.475C1170 773.629 1162.36 782.666 1152.93 782.666H896.263V857.067C915.249 858.498 930.271 877.174 930.271 900H634.944C634.944 888.115 639.01 877.365 645.591 869.576C651.857 862.16 660.395 857.44 669.865 857.013V782.666H406.068C396.643 782.666 389 773.629 389 762.475V658H1169.2C1169.64 658 1170 658.426 1170 658.952V762.475Z" fill="#204EB2"/><path id="Monitor Copy" fill-rule="evenodd" clip-rule="evenodd" d="M1214.57 783H344.434C329.283 783 317 770.702 317 755.532V218.469C317 203.298 329.283 191 344.434 191H1214.57C1229.72 191 1242 203.298 1242 218.469V755.532C1242 770.702 1229.72 783 1214.57 783" fill="#56ACF6"/><path id="On Button Copy" fill-rule="evenodd" clip-rule="evenodd" d="M804 721.5C804 733.926 793.702 744 781 744C768.298 744 758 733.926 758 721.5C758 709.074 768.298 699 781 699C793.702 699 804 709.074 804 721.5" fill="#FCEBEC"/><path id="Screen Copy" fill-rule="evenodd" clip-rule="evenodd" d="M353 658V241.233C353 230.059 362.06 221 373.235 221H1184.76C1195.94 221 1205 230.059 1205 241.233V657.046C1205 657.573 1204.57 658 1204.05 658H353Z" fill="#204EB2"/><g id="Computer Screen Copy"><g id="Stats and Graphs"><g id="Graph 4"><path id="Rectangle Copy 15" fill-rule="evenodd" clip-rule="evenodd" d="M1112.46 452.302C1135.11 452.302 1153.46 470.658 1153.46 493.302V568.899C1153.46 591.542 1135.11 609.899 1112.46 609.899L738.36 609.899C715.717 609.899 697.36 591.542 697.36 568.899V493.302C697.36 470.658 715.717 452.302 738.36 452.302L1112.46 452.302Z" fill="white"/><g id="Group"><path id="Rectangle" d="M737.523 476.155H1096.77C1101.77 476.155 1105.82 480.206 1105.82 485.204V485.204C1105.82 490.201 1101.77 494.252 1096.77 494.252H737.523V476.155Z" fill="#EECCDC"/><path id="Rectangle Copy" d="M737.523 522.054H901.302C906.3 522.054 910.351 526.106 910.351 531.103V531.103C910.351 536.101 906.3 540.152 901.302 540.152H737.523V522.054Z" fill="#EECCDC"/><path id="Rectangle Copy 2" d="M737.523 567.691H990.201C995.198 567.691 999.249 571.743 999.249 576.74V576.74C999.249 581.738 995.198 585.789 990.201 585.789H737.523V567.691Z" fill="#EECCDC"/></g></g><g id="Graph 2"><path id="Rectangle Copy 16" fill-rule="evenodd" clip-rule="evenodd" d="M882 263.038C900.778 263.038 916 278.261 916 297.038V395.349C916 414.127 900.778 429.349 882 429.349H731.21C712.432 429.349 697.21 414.127 697.21 395.349V297.038C697.21 278.261 712.432 263.038 731.21 263.038L882 263.038Z" fill="white"/><path id="Rectangle Copy 16_2" fill-rule="evenodd" clip-rule="evenodd" d="M1119.66 263.038C1138.44 263.038 1153.66 278.261 1153.66 297.038V395.349C1153.66 414.127 1138.44 429.349 1119.66 429.349H968.874C950.096 429.349 934.874 414.127 934.874 395.349V297.038C934.874 278.261 950.096 263.038 968.874 263.038H1119.66Z" fill="white"/><g id="Group 2"><path id="Combined Shape Copy 4" fill-rule="evenodd" clip-rule="evenodd" d="M806.727 409.453C843.864 409.453 873.97 379.35 873.97 342.216C873.97 305.083 843.864 274.98 806.727 274.98C769.59 274.98 739.484 305.083 739.484 342.216C739.484 379.35 769.59 409.453 806.727 409.453ZM806.727 378.642C826.879 378.642 843.216 362.333 843.216 342.216C843.216 322.099 826.879 305.791 806.727 305.791C786.575 305.791 770.239 322.099 770.239 342.216C770.239 362.333 786.575 378.642 806.727 378.642Z" fill="#DDB0C8"/><path id="Combined Shape Copy 5" fill-rule="evenodd" clip-rule="evenodd" d="M820.332 308.333C830.374 312.431 838.184 320.878 841.428 331.338L870.83 322.224C864.865 302.889 850.464 287.272 831.941 279.698L820.332 308.333Z" fill="#E93737"/><path id="Combined Shape Copy 6" fill-rule="evenodd" clip-rule="evenodd" d="M741.84 360.068C744.761 370.743 750.229 380.36 757.547 388.22L780.04 367.132C776.042 362.852 773.059 357.607 771.477 351.784L741.84 360.068Z" fill="#1BC0D7"/></g><g id="Group 2_2"><path id="Combined Shape Copy 4_2" fill-rule="evenodd" clip-rule="evenodd" d="M1044.39 409.453C1081.53 409.453 1111.63 379.35 1111.63 342.216C1111.63 305.083 1081.53 274.98 1044.39 274.98C1007.25 274.98 977.148 305.083 977.148 342.216C977.148 379.35 1007.25 409.453 1044.39 409.453ZM1044.39 378.642C1064.54 378.642 1080.88 362.333 1080.88 342.216C1080.88 322.099 1064.54 305.791 1044.39 305.791C1024.24 305.791 1007.9 322.099 1007.9 342.216C1007.9 362.333 1024.24 378.642 1044.39 378.642Z" fill="#DDB0C8"/><path id="Combined Shape Copy 5_2" fill-rule="evenodd" clip-rule="evenodd" d="M1058 308.333C1068.04 312.431 1075.85 320.878 1079.09 331.338L1108.49 322.224C1102.53 302.889 1088.13 287.272 1069.61 279.698L1058 308.333Z" fill="#E93737"/><path id="Combined Shape Copy 6_2" fill-rule="evenodd" clip-rule="evenodd" d="M979.504 360.068C982.425 370.743 987.893 380.36 995.211 388.22L1017.7 367.132C1013.71 362.852 1010.72 357.607 1009.14 351.784L979.504 360.068Z" fill="#1BC0D7"/></g></g><g id="Graph 1"><g id="Group 27"><path id="Rectangle Copy 16_3" fill-rule="evenodd" clip-rule="evenodd" d="M605.559 262C632.621 262 654.559 283.938 654.559 311V561C654.559 588.062 632.621 610 605.559 610H461.002C433.94 610 412.002 588.062 412.002 561L412.002 311C412.002 283.938 433.94 262 461.002 262L605.559 262Z" fill="white"/></g><rect id="Rectangle_2" x="446.25" y="341.984" width="174.198" height="146.493" rx="36" fill="#FCEBEC"/><path id="Path 8 (Stroke)" fill-rule="evenodd" clip-rule="evenodd" d="M625.453 356.016C630.654 357.875 633.363 363.598 631.504 368.798L622.087 365.433C631.504 368.798 631.503 368.799 631.503 368.8L631.502 368.803L631.499 368.812L631.446 368.96C631.409 369.061 631.356 369.209 631.287 369.401C631.148 369.784 630.946 370.341 630.688 371.048C630.171 372.46 629.428 374.473 628.518 376.885C626.703 381.701 624.207 388.154 621.51 394.635C618.838 401.056 615.867 407.749 613.099 412.935C611.74 415.481 610.24 418.029 608.673 420.067C607.904 421.068 606.855 422.296 605.533 423.363C604.419 424.263 601.773 426.152 597.999 426.152C593.712 426.152 590.291 424.007 588.211 421.146C586.534 418.839 585.916 416.353 585.632 414.966C585.603 414.824 585.575 414.682 585.549 414.539C585.33 414.868 585.107 415.207 584.879 415.559C582.355 419.445 579.736 423.946 576.877 428.86C575.473 431.273 574.012 433.785 572.475 436.373C568.029 443.859 563.01 451.87 557.751 457.918C555.116 460.949 552.068 463.907 548.618 466.056C545.138 468.226 540.583 469.97 535.375 469.318C520.828 467.496 515.378 455.048 512.592 448.685C512.468 448.402 512.349 448.132 512.236 447.875C510.499 443.951 509.517 441.886 508.433 440.572C508.045 440.101 507.882 439.964 507.649 439.925C507.452 440.019 507.087 440.215 506.542 440.602C505.172 441.572 503.399 443.225 501.289 445.664C497.085 450.527 492.575 457.306 488.327 464.487C484.125 471.591 480.382 478.741 477.678 484.143C476.33 486.836 475.25 489.076 474.51 490.635C474.141 491.414 473.857 492.021 473.668 492.429C473.573 492.633 473.502 492.787 473.456 492.887L473.406 492.997L473.394 493.023C471.106 498.05 465.177 500.271 460.15 497.984C455.123 495.697 452.902 489.767 455.189 484.74L464.292 488.882C455.189 484.74 455.19 484.739 455.191 484.738L455.216 484.681L455.282 484.538C455.338 484.415 455.42 484.238 455.526 484.01C455.738 483.554 456.046 482.895 456.441 482.061C457.232 480.395 458.374 478.027 459.793 475.192C462.623 469.537 466.595 461.944 471.113 454.304C475.587 446.742 480.804 438.778 486.16 432.583C488.831 429.494 491.796 426.539 494.976 424.285C498.031 422.12 502.253 419.909 507.228 419.909C514.73 419.909 520.157 423.356 523.859 427.843C526.871 431.493 528.882 436.055 530.279 439.224C530.363 439.415 530.445 439.601 530.525 439.781C533.914 447.44 535.33 449.004 537.449 449.409C537.579 449.349 537.775 449.248 538.041 449.082C539.136 448.4 540.687 447.064 542.658 444.796C546.613 440.248 550.834 433.645 555.278 426.161C556.582 423.965 557.919 421.669 559.263 419.36C562.27 414.194 565.313 408.966 568.106 404.665C570.16 401.503 572.346 398.413 574.598 395.897C576.584 393.679 579.788 390.54 584.107 389.277C586.686 388.523 589.742 388.127 592.922 388.897C596.036 389.651 598.498 391.336 600.28 393.412C601.198 391.332 602.126 389.158 603.045 386.95C605.625 380.751 608.034 374.524 609.804 369.83C610.687 367.487 611.407 365.537 611.905 364.176C612.154 363.496 612.347 362.964 612.477 362.604C612.542 362.424 612.592 362.287 612.624 362.197L612.67 362.067M605.262 411.103C605.261 411.105 605.251 411.072 605.235 410.998C605.255 411.064 605.263 411.101 605.262 411.103ZM537.244 449.488C537.244 449.487 537.253 449.485 537.269 449.481C537.252 449.486 537.244 449.488 537.244 449.488Z" fill="#56ACF6"/><path id="Path 10 (Stroke)" fill-rule="evenodd" clip-rule="evenodd" d="M627.378 428.045C632.064 430.968 633.492 437.137 630.569 441.823L622.085 436.53C630.569 441.823 630.568 441.824 630.567 441.825L630.565 441.829L630.559 441.839L630.541 441.868L630.48 441.964C630.429 442.045 630.357 442.159 630.265 442.304C630.08 442.593 629.816 443.006 629.478 443.522C628.804 444.555 627.838 446.01 626.644 447.735C624.271 451.164 620.934 455.759 617.164 460.262C613.476 464.667 609.004 469.434 604.332 472.862C601.994 474.578 599.2 476.262 596.09 477.26C592.919 478.277 588.843 478.745 584.651 477.112C580.251 475.398 575.876 471.96 572.769 469.519C572.664 469.436 572.56 469.355 572.458 469.274L572.261 469.12C568.624 466.264 565.669 463.944 562.811 462.396C559.908 460.823 558.717 460.961 558.418 461.034L558.416 461.034C558.288 461.065 556.46 461.508 553.728 466.386C545.265 481.493 533.97 487.882 521.947 488.568C512.357 489.115 503.124 485.822 497.387 483.776C496.795 483.565 496.241 483.368 495.727 483.189C495.66 483.197 494.67 483.125 492.288 484.192C489.554 485.416 486.372 487.53 483.135 490.112C479.966 492.64 477.093 495.333 474.989 497.426C473.946 498.464 473.113 499.333 472.55 499.932C472.269 500.23 472.057 500.461 471.921 500.609C471.853 500.684 471.804 500.737 471.776 500.769L471.752 500.796C468.075 504.917 461.754 505.278 457.632 501.601C453.511 497.925 453.15 491.604 456.827 487.482L464.289 494.139C456.827 487.482 456.828 487.481 456.829 487.479L456.84 487.467L456.862 487.443L456.93 487.367C456.986 487.306 457.063 487.221 457.16 487.115C457.354 486.903 457.628 486.605 457.976 486.235C458.671 485.496 459.661 484.463 460.885 483.246C463.314 480.83 466.746 477.602 470.663 474.477C474.511 471.407 479.195 468.141 484.116 465.937C488.77 463.854 495.425 461.917 502.149 464.247C502.717 464.444 503.277 464.64 503.83 464.833C510.117 467.028 515.49 468.904 520.808 468.6C525.229 468.348 530.754 466.475 536.279 456.612C540.521 449.038 546.156 443.438 553.679 441.603C561.009 439.816 567.606 442.247 572.337 444.81C576.743 447.197 580.928 450.49 584.133 453.013C584.364 453.194 584.589 453.371 584.809 453.544C587.643 455.769 589.482 457.123 590.736 457.875C591.167 457.645 591.754 457.285 592.5 456.737C595.245 454.724 598.505 451.394 601.829 447.423C605.073 443.549 608.03 439.488 610.197 436.355C611.274 434.799 612.139 433.496 612.73 432.591C613.025 432.139 613.25 431.788 613.398 431.556C613.472 431.44 613.527 431.354 613.561 431.3L613.596 431.243L613.6 431.237L613.602 431.235C616.525 426.55 622.693 425.122 627.378 428.045Z" fill="#E93737"/><rect id="Rectangle_3" x="464.078" y="291.819" width="138.112" height="31.2738" rx="15.6369" fill="#EECCDC"/><rect id="Rectangle Copy 20" x="446.25" y="518.79" width="174.198" height="7.24235" rx="3.62117" fill="#EECCDC"/><rect id="Rectangle Copy 22" x="446.25" y="560.186" width="174.198" height="7.24235" rx="3.62117" fill="#EECCDC"/></g></g></g></g></g></svg>