<svg viewBox="400 312.5 299.9999999999997 437.5000000000001" fill="none" xmlns="http://www.w3.org/2000/svg" xmlns:xlink="http://www.w3.org/1999/xlink" overflow="visible" width="299.9999999999997px" height="437.5000000000001px"><g id="Master/Stickers/Phone Chat"><g id="Mobile3" clip-path="url(#clip0_410_10190a908c8c8-274e-4780-86f5-8b18648d3f60)"><rect id="Container" x="407" y="317.579" width="222.821" height="424.421" rx="12.1263" fill="#C7D1D9"/><circle id="Touch" cx="517.653" cy="693.495" r="22.7368" fill="white"/><g id="Camera"><circle id="Lens" cx="497.948" cy="343.348" r="3.03158" fill="white"/><rect id="Sensor" x="508.558" y="340.315" width="31.8316" height="6.06316" rx="3.03158" fill="white"/></g><g id="Rows" clip-path="url(#clip1_410_10190a908c8c8-274e-4780-86f5-8b18648d3f60)"><g id="Row" clip-path="url(#clip2_410_10190a908c8c8-274e-4780-86f5-8b18648d3f60)"><rect id="Container_2" x="428.221" y="360.021" width="180.379" height="76.9486" rx="6.06316" fill="white"/><g id="Text Stuff" clip-path="url(#clip3_410_10190a908c8c8-274e-4780-86f5-8b18648d3f60)"><rect id="Label" x="441.863" y="383.104" width="92.4632" height="11.5412" rx="4.54737" fill="#C7D1D9"/><rect id="Label_2" x="441.863" y="402.339" width="62.0643" height="11.5412" rx="4.54737" fill="#C7D1D9"/></g><g id="Check"><circle id="Background" cx="589.322" cy="398.491" r="10.6105" fill="#C7D1D9"/><circle id="Indicator" cx="589.323" cy="398.492" r="4.54737" fill="#F2F2F2"/></g></g><g id="Row_2" clip-path="url(#clip4_410_10190a908c8c8-274e-4780-86f5-8b18648d3f60)"><rect id="Background_2" x="428.221" y="449.453" width="180.379" height="57.1542" rx="6.06316" fill="white"/><g id="Text" clip-path="url(#clip5_410_10190a908c8c8-274e-4780-86f5-8b18648d3f60)"><rect id="Name" x="487.337" y="466.602" width="92.4632" height="8.57484" rx="4.28742" fill="#C7D1D9"/><rect id="Name_2" x="487.337" y="480.894" width="62.0643" height="8.57484" rx="4.28742" fill="#C7D1D9"/></g><circle id="Avatar" cx="460.053" cy="478.036" r="18.1895" fill="#C5CFD6"/></g><g id="Row_3" clip-path="url(#clip6_410_10190a908c8c8-274e-4780-86f5-8b18648d3f60)"><rect id="Container_3" x="428.221" y="519.179" width="180.379" height="57.1542" rx="6.06316" fill="white"/><g id="Text Stuff_2" clip-path="url(#clip7_410_10190a908c8c8-274e-4780-86f5-8b18648d3f60)"><rect id="Label_3" x="441.863" y="536.329" width="92.4632" height="8.57484" rx="4.28742" fill="#C7D1D9"/><rect id="Label_4" x="441.863" y="550.62" width="62.0643" height="8.57484" rx="4.28742" fill="#C7D1D9"/></g></g><g id="Row_4" clip-path="url(#clip8_410_10190a908c8c8-274e-4780-86f5-8b18648d3f60)"><rect id="Background_3" x="428.221" y="588.905" width="180.379" height="57.1542" rx="6.06316" fill="white"/><g id="Text_2" clip-path="url(#clip9_410_10190a908c8c8-274e-4780-86f5-8b18648d3f60)"><rect id="Name_3" x="487.337" y="606.055" width="92.4632" height="8.57484" rx="4.28742" fill="#C7D1D9"/><rect id="Name_4" x="487.337" y="620.346" width="62.0643" height="8.57484" rx="4.28742" fill="#C7D1D9"/></g><circle id="Avatar_2" cx="460.053" cy="617.488" r="18.1895" fill="#C5CFD6"/></g></g></g><g id="Image"><path id="Fill 35" fill-rule="evenodd" clip-rule="evenodd" d="M623.769 544.927C623.763 544.942 623.756 544.957 623.747 544.975C623.756 544.96 623.769 544.899 623.769 544.927" fill="#C5CFD6"/><path id="Fill 37" fill-rule="evenodd" clip-rule="evenodd" d="M623.754 544.95C623.754 544.953 623.751 544.959 623.751 544.965C623.751 544.95 623.779 544.904 623.754 544.95" fill="#C5CFD6"/><path id="Fill 39" fill-rule="evenodd" clip-rule="evenodd" d="M623.86 544.693C623.839 544.754 623.811 544.811 623.787 544.872C623.799 544.842 623.811 544.818 623.823 544.787C623.508 545.575 623.708 545.063 623.86 544.693" fill="#C5CFD6"/><path id="Fill 41" fill-rule="evenodd" clip-rule="evenodd" d="M623.792 544.876C623.78 544.903 623.768 544.933 623.756 544.961C623.668 545.13 623.792 544.876 623.792 544.876" fill="#C5CFD6"/><path id="Fill 45" fill-rule="evenodd" clip-rule="evenodd" d="M623.756 544.95C623.756 544.947 623.756 544.947 623.759 544.944C623.756 544.947 623.756 544.947 623.756 544.95" fill="#C5CFD6"/><path id="Fill 47" fill-rule="evenodd" clip-rule="evenodd" d="M623.742 544.972C623.724 545.009 623.827 544.833 623.742 544.972Z" fill="#C5CFD6"/><path id="Fill 49" fill-rule="evenodd" clip-rule="evenodd" d="M623.755 544.95L623.761 544.944C623.758 544.947 623.758 544.95 623.755 544.95" fill="#C5CFD6"/><rect id="Photo Background" x="551" y="466.126" width="144" height="95.4947" rx="6.06316" fill="#C5CFD6"/><path id="Mountains" fill-rule="evenodd" clip-rule="evenodd" d="M605.568 493.411L563.126 561.621H648.01L605.568 493.411Z" fill="#AFB9C5"/><path id="Mountains_2" fill-rule="evenodd" clip-rule="evenodd" d="M647.253 511.6L610.116 561.621H684.39L647.253 511.6Z" fill="#AFB9C5"/><circle id="Sun" cx="663.168" cy="497.958" r="13.6421" fill="white"/></g></g><defs><clipPath id="clip0_410_10190a908c8c8-274e-4780-86f5-8b18648d3f60"><rect width="222.821" height="424.421" fill="white" transform="translate(407 317.579)"/></clipPath><clipPath id="clip1_410_10190a908c8c8-274e-4780-86f5-8b18648d3f60"><rect width="180.379" height="286.484" fill="white" transform="translate(428.221 360.021)"/></clipPath><clipPath id="clip2_410_10190a908c8c8-274e-4780-86f5-8b18648d3f60"><rect width="180.379" height="77.3053" fill="white" transform="translate(428.221 360.021)"/></clipPath><clipPath id="clip3_410_10190a908c8c8-274e-4780-86f5-8b18648d3f60"><rect width="92.4632" height="30.9221" fill="white" transform="translate(441.863 383.104)"/></clipPath><clipPath id="clip4_410_10190a908c8c8-274e-4780-86f5-8b18648d3f60"><rect width="180.379" height="57.6" fill="white" transform="translate(428.221 449.453)"/></clipPath><clipPath id="clip5_410_10190a908c8c8-274e-4780-86f5-8b18648d3f60"><rect width="92.4632" height="23.6308" fill="white" transform="translate(487.337 466.602)"/></clipPath><clipPath id="clip6_410_10190a908c8c8-274e-4780-86f5-8b18648d3f60"><rect width="180.379" height="57.6" fill="white" transform="translate(428.221 519.179)"/></clipPath><clipPath id="clip7_410_10190a908c8c8-274e-4780-86f5-8b18648d3f60"><rect width="92.4632" height="23.6308" fill="white" transform="translate(441.863 536.329)"/></clipPath><clipPath id="clip8_410_10190a908c8c8-274e-4780-86f5-8b18648d3f60"><rect width="180.379" height="57.6" fill="white" transform="translate(428.221 588.905)"/></clipPath><clipPath id="clip9_410_10190a908c8c8-274e-4780-86f5-8b18648d3f60"><rect width="92.4632" height="23.6308" fill="white" transform="translate(487.337 606.055)"/></clipPath></defs></svg>