<svg viewBox="137.5 300 750.0000000000001 499.9999999999999" fill="none" xmlns="http://www.w3.org/2000/svg" xmlns:xlink="http://www.w3.org/1999/xlink" overflow="visible" width="750.0000000000001px" height="499.9999999999999px"><g id="Master/Stickers/Statistics"><g id="Bars"><rect id="Rectangle" x="141" y="416.462" width="458.977" height="66.7603" rx="16.6901" fill="#89c5cc"/><rect id="Rectangle" x="141" y="516.602" width="292.076" height="66.7603" rx="16.6901" fill="#C1DEE2"/><rect id="Rectangle_2" x="141" y="616.742" width="358.836" height="66.7603" rx="16.6901" fill="#C1DEE2"/></g><g id="Pie Chart"><path id="Value" fill-rule="evenodd" clip-rule="evenodd" d="M648.001 429.158C648.001 361.433 702.464 306 769.004 306V429.158L686.31 518.798C662.787 496.882 648.001 464.732 648.001 429.158Z" fill="#F2F2F2"/><path id="Value_2" fill-rule="evenodd" clip-rule="evenodd" d="M764.381 427.003H885.834C885.834 458.591 873.027 488.189 852.781 509.697C830.512 533.22 798.801 548.006 764.381 548.006C732.676 548.006 703.655 535.247 681.381 515.075L764.381 427.003Z" fill="#AFB9C5"/><path id="Value_3" fill-rule="evenodd" clip-rule="evenodd" d="M886.007 427.004C886.007 360.465 831.543 306.001 765.004 306.001V427.004H886.007ZM704.501 306L752.902 414.903L644 366.501C654.769 338.271 678.951 316.769 704.501 306Z" fill="#8991DC"/></g><g id="Chart"><path id="Value_4" fill-rule="evenodd" clip-rule="evenodd" d="M798.528 708.773C791.327 716.387 781.126 721.169 769.781 721.169C747.98 721.169 730.307 703.622 730.307 681.977C730.307 660.332 747.98 642.785 769.781 642.785V570C707.763 570 657 620.401 657 681.977C657 743.553 707.763 793.953 769.781 793.953C802.357 793.953 831.799 780.27 851.868 758.502L798.528 708.773Z" fill="#F2F2F2"/><path id="Value_5" fill-rule="evenodd" clip-rule="evenodd" d="M767.522 570V643.73C789.449 643.73 807.223 661.505 807.223 683.431H880.953C880.953 621.055 829.898 570 767.522 570Z" fill="#42A5FF"/><path id="Value_6" fill-rule="evenodd" clip-rule="evenodd" d="M806.182 680.522C806.182 693.321 800.155 704.698 790.791 712.044L836.856 770.685C863.67 749.691 880.954 717.148 880.954 680.522H806.182Z" fill="#C5CFD6"/></g></g></svg>